<?xml version="1.0" encoding="UTF-8" ?>
<!DOCTYPE svg PUBLIC "-//W3C//DTD SVG 1.1//EN" "http://www.w3.org/Graphics/SVG/1.1/DTD/svg11.dtd">
<svg width="512pt" height="512pt" viewBox="0 0 512 512" version="1.1" xmlns="http://www.w3.org/2000/svg">
<g id="#000000ff">
<path fill="#fff" opacity="1.00" d=" M 251.69 0.00 L 256.89 0.00 C 264.26 0.47 271.24 5.20 273.88 12.18 C 277.24 20.20 274.23 30.22 267.03 35.07 C 262.71 38.23 257.19 38.73 252.01 38.70 C 198.80 39.42 146.05 60.74 107.58 97.58 C 100.93 103.25 95.46 110.12 89.49 116.48 C 62.94 147.90 45.67 187.07 40.45 227.88 C 35.58 265.32 40.54 304.04 55.08 338.90 C 65.04 362.87 79.19 385.20 97.17 403.96 C 102.81 410.65 109.66 416.14 116.02 422.10 C 155.66 455.96 207.93 474.51 260.04 473.32 C 304.22 472.66 348.00 457.91 383.66 431.83 C 408.48 413.39 429.87 390.08 445.09 363.08 C 463.49 330.95 473.23 294.00 473.38 256.99 C 473.21 249.63 477.16 242.21 483.86 238.91 C 491.55 234.75 501.87 236.81 507.40 243.57 C 510.13 246.70 511.49 250.77 512.00 254.84 L 512.00 260.20 C 511.18 302.89 499.77 345.39 478.47 382.44 C 459.86 415.11 433.97 443.61 403.21 465.24 C 361.73 494.79 311.19 511.08 260.31 512.00 L 251.85 512.00 C 200.91 511.11 150.30 494.81 108.77 465.23 C 81.19 445.83 57.53 420.91 39.52 392.41 C 14.49 353.14 0.89 306.87 0.00 260.35 L 0.00 250.96 C 0.94 212.75 10.15 174.70 27.57 140.63 C 51.99 92.25 92.20 52.03 140.58 27.60 C 174.87 10.06 213.21 0.80 251.69 0.00 Z" />
<path fill="#fff" opacity="1.00" d=" M 469.05 70.97 C 472.04 67.92 475.78 65.45 480.06 64.73 C 487.58 63.15 495.78 66.72 499.87 73.20 C 503.80 79.12 503.94 87.23 500.31 93.33 C 498.49 96.40 495.77 98.77 493.30 101.29 C 414.20 180.18 335.10 259.08 256.01 337.97 C 253.63 340.31 251.39 342.83 248.63 344.72 C 242.98 348.53 235.27 348.97 229.23 345.81 C 225.33 343.86 222.56 340.40 219.66 337.27 C 191.05 306.21 162.45 275.15 133.84 244.08 C 130.89 240.75 127.62 237.68 124.98 234.07 C 120.16 227.27 120.61 217.31 126.02 210.96 C 130.89 204.89 139.63 202.40 146.99 204.96 C 150.96 206.20 154.15 209.01 156.86 212.06 C 184.09 241.67 211.34 271.25 238.59 300.83 C 315.42 224.22 392.23 147.60 469.05 70.97 Z" />
</g>
</svg>
