<?xml version="1.0" encoding="UTF-8" ?>
<!DOCTYPE svg PUBLIC "-//W3C//DTD SVG 1.1//EN" "http://www.w3.org/Graphics/SVG/1.1/DTD/svg11.dtd">
<svg width="512pt" height="512pt" viewBox="0 0 512 512" version="1.1" xmlns="http://www.w3.org/2000/svg">
<g id="#000000ff">
<path fill="#fff" opacity="1.00" d=" M 252.78 0.00 L 258.97 0.00 C 263.41 0.73 267.86 1.90 271.78 4.18 C 276.62 6.83 280.27 11.05 284.19 14.83 C 303.88 34.12 323.53 53.45 343.22 72.74 C 366.44 72.78 389.67 72.64 412.90 72.80 C 427.89 73.03 441.50 85.07 443.70 99.87 C 444.62 107.20 444.04 114.61 444.19 121.98 C 444.48 125.50 442.42 129.18 438.91 130.17 C 434.68 131.66 429.61 128.43 429.31 123.93 C 428.91 117.29 429.46 110.63 429.09 103.99 C 428.74 96.31 422.59 89.42 415.04 88.09 C 411.41 87.50 407.71 87.77 404.05 87.73 C 305.36 87.73 206.66 87.73 107.97 87.73 C 104.66 87.75 101.33 87.57 98.03 87.93 C 90.74 88.71 84.40 94.72 83.15 101.92 C 82.66 104.92 82.80 107.97 82.80 110.99 C 82.85 152.25 82.74 193.51 82.85 234.78 C 128.30 280.04 173.66 325.39 219.06 370.71 C 226.14 366.95 233.12 362.98 240.17 359.16 C 246.48 355.67 253.91 354.20 261.05 355.39 C 266.35 356.13 271.14 358.67 275.75 361.25 C 281.47 364.41 287.20 367.56 292.92 370.72 C 338.35 325.42 383.73 280.06 429.17 234.76 C 429.23 208.48 429.17 182.20 429.19 155.93 C 429.04 153.16 430.12 150.22 432.55 148.70 C 435.67 146.54 440.36 147.31 442.61 150.38 C 444.14 152.20 444.17 154.69 444.21 156.96 C 444.21 161.90 444.17 166.85 444.18 171.80 C 453.39 180.93 462.67 189.99 471.94 199.07 C 478.97 205.36 483.44 214.51 483.38 224.01 C 483.42 309.01 483.39 394.02 483.40 479.02 C 483.58 488.28 479.67 497.50 472.76 503.69 C 467.69 508.38 461.04 511.01 454.26 512.00 L 368.97 512.00 C 365.82 511.10 363.00 508.51 362.86 505.08 C 362.36 500.60 366.52 496.59 370.95 497.02 C 397.62 496.95 424.30 497.06 450.98 496.97 C 458.82 497.21 465.90 491.46 467.94 484.01 C 402.17 447.83 336.37 411.72 270.60 375.54 C 266.28 373.27 262.05 370.22 257.01 370.02 C 253.35 369.71 249.77 370.89 246.64 372.69 C 179.14 409.92 111.49 446.88 44.01 484.15 C 45.59 488.42 48.18 492.53 52.32 494.73 C 57.03 497.58 62.73 496.95 67.99 497.01 C 155.32 496.99 242.65 497.01 329.98 497.00 C 333.24 497.05 336.54 496.73 339.77 497.34 C 343.94 498.42 346.33 503.51 344.52 507.43 C 343.65 509.74 341.41 511.04 339.27 512.00 L 57.90 512.00 C 52.02 511.16 46.20 509.19 41.46 505.51 C 33.52 499.62 28.61 489.91 28.62 480.01 C 28.57 436.37 28.63 392.72 28.59 349.07 C 28.63 346.08 28.36 343.06 28.94 340.12 C 30.00 336.04 34.91 333.63 38.79 335.27 C 41.88 336.38 43.77 339.64 43.58 342.86 C 43.63 384.29 43.57 425.72 43.61 467.15 C 97.55 437.56 151.47 407.92 205.37 378.26 C 151.80 324.79 98.31 271.23 44.62 217.87 C 44.00 220.54 43.53 223.26 43.58 226.01 C 43.63 253.36 43.58 280.72 43.61 308.08 C 43.63 310.37 43.34 312.87 41.65 314.58 C 39.01 317.66 33.84 317.87 30.96 315.00 C 28.95 313.27 28.54 310.50 28.59 307.99 C 28.63 279.99 28.57 251.99 28.62 223.99 C 28.62 215.49 32.08 207.08 38.10 201.08 C 47.96 191.28 57.96 181.63 67.81 171.84 C 67.84 149.22 67.72 126.60 67.87 103.99 C 68.09 87.57 82.60 73.06 99.01 72.81 C 122.26 72.64 145.53 72.78 168.79 72.74 C 190.54 51.50 212.17 30.14 233.90 8.89 C 238.99 3.89 245.80 1.06 252.78 0.00 M 250.09 16.12 C 245.87 17.48 243.00 21.01 239.92 23.98 C 223.33 40.22 206.81 56.55 190.17 72.74 C 234.02 72.71 277.87 72.76 321.72 72.72 C 304.04 55.24 286.24 37.88 268.52 20.45 C 263.89 15.59 256.40 13.65 250.09 16.12 M 54.26 206.20 C 58.79 210.67 63.26 215.22 67.81 219.67 C 67.80 210.76 67.83 201.84 67.80 192.93 C 63.27 197.34 58.76 201.76 54.26 206.20 M 444.20 192.90 C 444.18 201.83 444.18 210.76 444.20 219.68 C 448.75 215.22 453.23 210.69 457.74 206.20 C 453.25 201.74 448.73 197.31 444.20 192.90 M 306.71 378.12 C 322.90 387.41 339.42 396.14 355.73 405.22 C 393.29 425.84 430.81 446.52 468.40 467.09 C 468.40 388.75 468.40 310.40 468.40 232.05 C 468.36 227.32 468.77 222.50 467.34 217.92 C 413.70 271.22 360.31 324.78 306.71 378.12 Z" />
<path fill="#fff" opacity="1.00" d=" M 207.56 148.63 C 220.65 137.38 237.73 130.96 254.97 130.61 C 270.86 130.22 286.77 135.17 299.78 144.26 C 312.08 152.76 321.67 165.07 326.98 179.04 C 331.83 191.40 332.24 205.30 328.79 218.08 C 326.57 226.21 323.76 234.56 317.88 240.84 C 311.22 248.25 300.89 252.38 290.96 250.94 C 283.78 249.80 277.88 244.61 274.55 238.32 C 268.87 243.99 261.12 247.75 253.01 247.78 C 243.23 248.00 233.87 242.94 227.75 235.47 C 215.71 220.92 213.84 198.68 223.37 182.37 C 229.14 172.59 239.59 165.44 251.04 164.65 C 258.57 164.02 266.19 166.36 272.22 170.87 C 272.34 168.15 271.89 165.07 273.72 162.79 C 276.09 159.33 281.48 158.68 284.60 161.49 C 286.53 163.05 287.37 165.57 287.26 168.01 C 287.18 187.34 287.06 206.68 286.98 226.02 C 286.69 230.40 289.28 235.68 294.04 236.21 C 302.99 236.81 309.93 229.16 312.16 221.12 C 316.71 208.64 317.73 194.25 311.95 181.98 C 304.94 165.54 290.20 152.73 273.00 147.95 C 260.27 144.14 246.32 145.07 234.03 149.99 C 220.52 155.31 209.19 165.77 202.65 178.72 C 195.30 192.81 193.91 209.86 198.92 224.95 C 206.05 247.45 227.43 264.56 250.97 266.46 C 254.49 266.67 258.81 266.71 260.84 270.17 C 264.09 274.61 260.54 281.68 255.03 281.69 C 229.31 281.43 204.30 266.84 191.39 244.59 C 182.89 230.12 179.24 212.79 181.60 196.14 C 184.07 177.84 193.52 160.61 207.56 148.63 M 247.44 180.58 C 239.60 183.37 234.36 191.03 232.92 199.01 C 231.34 207.82 232.82 217.53 238.27 224.80 C 241.72 229.39 247.12 232.97 253.04 232.79 C 258.63 232.62 263.49 228.95 266.54 224.46 C 271.71 216.83 273.04 207.06 271.46 198.10 C 270.38 192.13 267.66 186.11 262.60 182.50 C 258.28 179.36 252.42 178.76 247.44 180.58 Z" />
</g>
</svg>
